<?xml version="1.0" encoding="utf-8"?>
<!-- Generator: Adobe Illustrator 23.0.4, SVG Export Plug-In . SVG Version: 6.00 Build 0)  -->
<svg version="1.1" id="Layer_1" xmlns="http://www.w3.org/2000/svg" xmlns:xlink="http://www.w3.org/1999/xlink" x="0px" y="0px"
	 viewBox="0 0 82.7 94.2" style="enable-background:new 0 0 82.7 94.2;" xml:space="preserve">
<style type="text/css">
	.st0{display:none;}
	.st1{display:inline;fill:#007D98;}
	.st2{display:inline;}
	.st3{display:none;fill:#231F20;stroke:#231F20;stroke-miterlimit:10;}
	.st4{fill:none;stroke:#FFFFFF;stroke-width:3;stroke-miterlimit:10;}
	.st5{fill:#FFFFFF;stroke:#FFFFFF;stroke-width:0.75;stroke-miterlimit:10;}
	.st6{fill:#FFFFFF;}
</style>
<g class="st0">
	<path class="st1" d="M-30.9-135.6c0,0,1.8,2.7,4,6.5c2.2,3.8,2.1,3.5,3.7,7.1c0,0,2,4.3,2.8,8.2s0.3,10.2,0.2,10.7s-1,5.4-1.4,9.7
		c-0.4,4.3-0.2,5.1,0,6.9h-10.5c0,0,0.4-3.4,0.6-4.1s1.5-6.4,2.9-9.3c0,0,0.9-2,1.6-4.3c0.7-2.3,1.1-3.6,1.5-7c0,0,0.3-3.1-0.2-6.2
		s-0.9-5.2-2-8.4C-28.7-129.2-30.5-135.1-30.9-135.6z"/>
	<path class="st2" d="M-31.9-87.2c0,0.1-0.1,0.1-0.1,0.2c-0.3,0.6-0.7,1-1.1,1.6c-0.2,0.2-0.5,0.4-0.7,0.6c-0.2,0.2-0.5,0.4-0.7,0.6
		c-0.5,0.4-1,0.9-1.4,1.5l-0.5,0.9c-0.2,0.3-0.3,0.6-0.4,1c-0.2,0.7-0.2,1.3-0.4,1.9c-0.2,0.6-0.5,1.1-0.9,1.5l0,0
		c-0.3,0.1-0.5,0.4-0.8,0.4c-0.3,0.1-0.7,0.1-1,0.2c-0.7,0.1-1.4,0.3-2,0.5c-1.2,0.4-2.4,0.7-3.7,1.1l0.1-0.1l-0.4,0.2
		c0,0,0,0-0.1,0l0,0v0.1c1.4-0.3,2.7-0.6,4.1-0.9c0.7-0.2,1.3-0.3,2-0.4c0.4,0,0.7,0,1.1-0.1c0.4,0,0.7-0.3,1-0.5
		c0.1-0.1,0.2-0.2,0.3-0.3c0,0.2,0,0.5-0.1,0.7c0,0.3,0,0.5-0.1,0.8c0,0.6-0.1,1-0.4,1.3s-0.7,0.5-1.1,0.7c-0.7,0.4-1.1,0.8-1.1,0.8
		s0.5-0.2,1.2-0.4c0.4-0.2,0.9-0.2,1.3-0.6c0.4-0.4,0.6-1.1,0.6-1.6c0-0.3,0-0.6,0-0.8c0-0.3,0-0.5,0-0.7c0-0.4,0.1-0.8,0.2-1.1
		c0-0.1,0.1-0.2,0.1-0.3c0.2-0.7,0.3-1.3,0.5-1.9c0.1-0.3,0.2-0.6,0.3-0.8l0.5-0.9c0.4-0.5,0.8-0.9,1.3-1.3c0.2-0.2,0.5-0.4,0.7-0.7
		c0.2-0.3,0.5-0.4,0.7-0.7c0.4-0.5,0.8-1,1-1.7c0.1-0.1,0.1-0.3,0.2-0.4h5.2c-0.1,0-0.1,0.1-0.1,0.1c-0.3,0.3-0.7,0.7-1,1.2
		c-0.2,0.5-0.5,0.9-0.6,1.5s-0.2,1.1-0.4,1.7l1.4-3.1l-1.8,3.7l-0.1,0.1l-0.3,0.4c-0.3,0.5-0.8,0.9-1.2,1.3
		c-0.4,0.4-0.9,0.8-1.2,1.3c-0.4,0.5-0.6,1-0.8,1.5s-0.3,0.9-0.6,1.2c-0.2,0.3-0.6,0.6-0.9,0.8c-0.3,0.2-0.6,0.4-0.8,0.6
		c-0.4,0.3-0.6,0.5-0.6,0.6c0,0,0.2-0.2,0.7-0.5c0.2-0.1,0.5-0.3,0.8-0.4c0.3-0.2,0.7-0.4,1-0.8c0.3-0.3,0.6-0.8,0.8-1.3
		s0.5-0.9,0.8-1.4c0.2-0.4,0.7-0.8,1.1-1.1c-0.1,0.2-0.3,0.4-0.3,0.8c-0.2,0.8-0.1,1.7,0.1,2.6s0.3,1.8,0.2,2.5
		c0,0.3-0.1,0.6-0.1,0.8c0,0.2-0.1,0.3-0.1,0.3s0.1-0.1,0.2-0.3c0.1-0.2,0.3-0.4,0.4-0.8s0.2-0.8,0.2-1.2c0-0.5-0.1-0.9-0.1-1.4
		c-0.1-0.5-0.2-1-0.3-1.5c0.3,1.1,1,2.4,1.6,3.7c0.7,1.3,1.5,2.7,1.8,3.7c0.2,0.5,0.3,1,0.3,1.3c-0.1,0.3-0.1,0.5-0.1,0.5
		s0.1-0.2,0.2-0.5s0.1-0.8,0-1.4c-0.2-1.2-0.9-2.6-1.6-3.9s-1.5-2.7-1.9-3.7c-0.2-0.5-0.3-1-0.4-1.3c0-0.1,0-0.2,0-0.3
		c0.4-0.4,0.9-0.8,1.2-1.3l0.3-0.4c0.1-0.1,0.1-0.1,0.2-0.2l0.1-0.2l0.3-0.9c0.1-0.6,0.2-1.1,0.3-1.7c0.1-0.5,0.3-1,0.5-1.5
		c0.2-0.4,0.5-0.8,0.8-1.1c0.1-0.1,0.2-0.3,0.4-0.4h2.7c-0.1,0.2-0.3,0.4-0.4,0.7c-0.2,0.4-0.3,0.8-0.4,1.4c-0.1,0.3,0,0.5-0.1,0.8
		c0,0.3,0,0.5-0.1,0.8c0,0.6-0.1,1-0.4,1.3c-0.3,0.3-0.7,0.5-1.1,0.7c-0.7,0.4-1.1,0.8-1.1,0.8s0.5-0.2,1.2-0.4
		c0.4-0.2,0.9-0.2,1.3-0.6s0.6-1.1,0.6-1.6c0-0.3,0-0.6,0-0.8c0-0.3,0-0.5,0-0.7c0.1-0.5,0.1-0.9,0.2-1.3c0.1-0.3,0.1-0.6,0.2-0.8"
		/>
	<path class="st2" d="M-23.4-82.1c-0.1-0.4-0.2-0.7-0.2-0.7s-0.1,0.3-0.1,0.8c-0.1,0.5,0,1,0,1.6c0.1,0.6,0.2,1.1,0.2,1.6
		c0.1,0.5,0.1,0.8,0.1,0.8s0.1-0.3,0.2-0.7c0.2-0.4,0.1-1.1,0.1-1.7C-23.1-81-23.3-81.6-23.4-82.1L-23.4-82.1z"/>
	<path class="st2" d="M-36-80.3c-0.1-0.4-0.2-0.7-0.2-0.7s-0.1,0.3-0.1,0.8c-0.1,0.5,0-0.9,0-0.4c0,0.6,0.2,3.1,0.2,3.6
		c0.1,0.5,0.1,0.8,0.1,0.8s0.1-0.3,0.2-0.7c0.2-0.4,0.1-1.1,0.1-1.7C-35.7-79.3-35.9-79.9-36-80.3L-36-80.3z"/>
	<path class="st2" d="M-17.6-78.2c-0.2-0.1-0.4-0.3-0.6-0.5c-0.2-0.2-0.3-0.4-0.5-0.7c-0.4-0.4-0.6-1.1-1.1-1.6l-0.7-0.6
		c-0.3-0.2-0.5-0.4-0.8-0.6c-0.5-0.4-1-0.6-1.5-0.8c-0.9-0.4-1.5-0.7-1.5-0.7s0.5,0.4,1.3,1c0.4,0.3,0.9,0.6,1.3,1
		c0.2,0.2,0.5,0.4,0.7,0.6l0.6,0.7c0.5,0.4,0.7,1,1.1,1.5c0.4,0.5,0.9,0.9,1.3,1.1c0.9,0.4,1.3,0.9,1.3,0.9s-0.1-0.1-0.3-0.4
		C-16.9-77.6-17.2-77.9-17.6-78.2L-17.6-78.2z"/>
	<path class="st2" d="M-41.6-79.3h0.9c0.3,0.1,0.6,0.1,0.9,0.2c0.6,0.1,1.1,0.2,1.6,0.4c1,0.2,0.6,0.3,0.6,0.3s0.4-0.3-0.5-0.6
		c-0.5-0.2-1-0.4-1.6-0.6c-0.3-0.1-0.6-0.2-0.9-0.2l-1-0.1c-0.7-0.1-1.3,0.2-1.9,0.2c-0.6,0.1-1.1,0.1-1.6,0s-0.9-0.1-1.2-0.1
		c-0.3,0-0.5,0.1-0.5,0.1s0.6,0,1.6,0.4c0.5,0.2,1,0.3,1.7,0.3C-42.8-79.2-42.2-79.4-41.6-79.3L-41.6-79.3z"/>
	<path class="st2" d="M-21.7-86c0.2,0.4,0.4,0.9,0.7,1.3c0.4,0.9,0.7,1.9,1.4,2.7l0,0l0,0c0.4,0.3,0.7,0.6,1.1,0.8l1.1,0.6
		c0.4,0.2,0.7,0.4,1.1,0.6c0.2,0.1,0.4,0.2,0.5,0.4l0.4,0.4c0.3,0.3,0.4,0.7,0.6,1.1c0.2,0.4,0.3,0.9,0.5,1.2
		c0.1,0.2,0.2,0.4,0.4,0.6c0.2,0.2,0.4,0.4,0.6,0.4c0.4,0.2,0.8,0.4,1.2,0.6l0.6,0.6l0.4,0.3c0,0,0.1,0,0.1,0.1l0.1,0.1
		c0-0.1-0.1-0.1-0.1-0.2l-0.3-0.3l-0.7-0.6l0,0l0,0c-0.4-0.3-0.8-0.4-1.1-0.7c-0.2-0.1-0.3-0.3-0.4-0.4l-0.3-0.5
		c-0.2-0.4-0.3-0.8-0.4-1.2c-0.2-0.4-0.3-0.9-0.6-1.2l-0.5-0.5c-0.1-0.2-0.4-0.3-0.5-0.4s-0.2-0.1-0.3-0.2c0.1,0,0.2,0,0.4,0.1
		c0.3,0.1,0.7,0.1,1.2,0.3c0.5,0.2,1,0.4,1.6,0.7c0.6,0.2,1.2,0.6,1.8,0.9c1.2,0.6,2.4,1.3,3.4,1.7S-6-76.2-6-76.2s-0.6-0.3-1.5-0.9
		c-0.9-0.5-2-1.3-3.3-1.9c-0.6-0.3-1.2-0.6-1.9-0.9c-0.6-0.3-1.2-0.4-1.7-0.5c-0.5-0.2-1-0.1-1.3-0.1c-0.2,0-0.4,0-0.4,0
		c-0.3-0.2-0.5-0.3-0.8-0.5l-1.3-0.7c-0.4-0.2-0.7-0.5-1-0.7c-0.6-0.7-1-1.6-1.5-2.5c-0.2-0.4-0.5-0.9-0.8-1.3
		c-0.1-0.2-0.3-0.4-0.5-0.6c-0.2-0.2-0.4-0.3-0.6-0.4c0.2,0.2,0.4,0.3,0.6,0.5C-21.9-86.4-21.8-86.3-21.7-86L-21.7-86z"/>
</g>
<text transform="matrix(1 0 0 1 -36.3615 -86.5829)" style="display:none;fill:#007D98;enable-background:new    ; font-family:'GillSans-SemiBold'; font-size:58.4498px;">R</text>
<text transform="matrix(1 0 0 1 -3.5633 -87.2347)" style="display:none;fill:#231F20;enable-background:new    ; font-family:'GillSans-SemiBold'; font-size:26.3462px;">OOTS</text>
<path class="st3" d="M71.5-86.4h-103c-0.1,0-0.2-0.1-0.2-0.2v-0.1c0-0.1,0.1-0.2,0.2-0.2h103c0.1,0,0.2,0.1,0.2,0.2v0.1
	C71.6-86.5,71.6-86.4,71.5-86.4z"/>
<g>
	<polygon class="st4" points="59.7,81 24.9,81 7.5,50.8 24.9,20.6 59.7,20.6 77.1,50.8 	"/>
	<polygon class="st5" points="36,20.5 38,34.6 37,41.2 19.6,49.9 36.6,45.4 33.3,58.3 25.8,60.3 34.6,60.3 33.5,73.3 41.3,35.7 
		49.9,48.1 46.4,62.2 52.3,50.7 59.4,62.2 55.6,51.6 69.5,48.8 55,48.3 44.5,32.9 44.5,20.5 	"/>
	<path class="st6" d="M51.6,9.3c-0.1-0.1-0.2-0.3-0.4-0.5c-0.4-0.4-1.1-0.7-1.9-0.9c-0.8-0.2-1.7-0.2-2.6,0c-0.9,0.2-1.7,0.5-2.5,1
		c-0.7,0.5-1.4,1.1-1.9,1.7c-0.5,0.7-0.9,1.4-1.1,2.1c-0.2,0.7-0.3,1.4-0.3,1.9c0,0.1,0,0.1,0,0.2c0.3-0.4,0.6-0.7,0.9-1.1
		c0.3-0.3,0.6-0.6,0.9-0.9c0.3-0.3,0.6-0.5,1-0.8c0.3-0.2,0.7-0.4,1-0.6c0.3-0.2,0.6-0.3,0.9-0.4c0.3-0.1,0.6-0.2,0.8-0.2
		c0.2-0.1,0.5-0.1,0.7-0.1c0.4,0,0.6-0.1,0.6-0.1s-0.2,0-0.6,0.1c-0.2,0-0.4,0-0.6,0.1c-0.2,0.1-0.5,0.2-0.8,0.3s-0.6,0.3-0.9,0.5
		c-0.3,0.2-0.6,0.4-0.9,0.7c-0.3,0.3-0.6,0.5-0.9,0.8c-0.3,0.3-0.6,0.6-0.8,0.9c-0.4,0.5-0.7,0.9-1,1.4c0.4,0,1.7-0.2,2.3-0.2
		c0.6-0.1,1.3-0.2,2-0.5c0.7-0.2,1.3-0.5,1.9-0.9c1.2-0.7,2.1-1.7,2.8-2.7c0.3-0.5,0.7-0.9,1-1.2c0.1-0.1,0.3-0.3,0.4-0.4
		c0.1-0.1,0.2-0.1,0.2-0.1S51.7,9.4,51.6,9.3L51.6,9.3z"/>
	<path class="st6" d="M38.5,13c-0.2-0.7-0.6-1.3-1.1-1.9c-0.5-0.6-1.1-1.2-1.8-1.6c-0.7-0.4-1.5-0.8-2.3-0.9c-0.8-0.2-1.7-0.2-2.4,0
		c-0.7,0.2-1.4,0.5-1.7,0.8c-0.2,0.2-0.3,0.3-0.4,0.4c-0.1,0.1-0.1,0.2-0.1,0.2s0.1,0,0.2,0.1s0.2,0.2,0.4,0.4
		c0.3,0.3,0.6,0.7,0.9,1.1c0.6,0.9,1.5,1.8,2.6,2.5c0.6,0.3,1.1,0.6,1.8,0.8c0.6,0.2,1.3,0.4,1.9,0.4c0.5,0.1,1.8,0.2,2.1,0.2
		c-0.3-0.4-0.6-0.9-0.9-1.3c-0.2-0.3-0.5-0.6-0.8-0.9c-0.3-0.3-0.5-0.5-0.8-0.8c-0.3-0.2-0.6-0.4-0.8-0.6c-0.3-0.2-0.6-0.3-0.8-0.5
		c-0.3-0.1-0.5-0.2-0.7-0.3S33.4,11,33.2,11c-0.3-0.1-0.5-0.1-0.5-0.1s0.2,0,0.5,0.1c0.2,0,0.4,0,0.6,0.1s0.5,0.1,0.8,0.2
		c0.3,0.1,0.6,0.3,0.9,0.4c0.3,0.2,0.6,0.4,0.9,0.6c0.3,0.2,0.6,0.5,0.9,0.7c0.3,0.3,0.6,0.5,0.8,0.8c0.3,0.3,0.6,0.7,0.9,1
		c0-0.1,0-0.1,0-0.2C38.8,14.3,38.7,13.7,38.5,13L38.5,13z"/>
	<path class="st6" d="M45,20.1c-1.9-0.4-3.5-0.5-4.9-0.5c0.1-1.2,0.2-3.6,0.4-3.8c0.1-0.2,0.3-0.4,0.6-0.6c0.1-0.1,0.2-0.2,0.2-0.3
		c0,0,0,0,0-0.1c-0.5,0.3-1.6,1.2-1.6,1.3c-0.3-0.3-0.7-0.7-1.3-1.2c0,0,0,0,0,0.1c0,0,0.1,0.2,0.2,0.3c0.2,0.2,0.4,0.4,0.6,0.6
		c0.2,0.3,0.3,0.5,0.4,0.5c0,0,0,2,0,3.2c-2.6,0-4.1,0.5-4.1,0.5"/>
</g>
</svg>
